PathFileType	4	(X/Y/Z)	Run_300 02
DataRate	CameraRate	NumFrames	NumMarkers	Units	OrigDataRate	OrigDataStartFrame	OrigNumFrames
100	100	4	42	mm	100	166	128
Frame#	Time	LASI			RASI			LPSI			RPSI			RTH1			RTH2			RTH3			LTH1			LTH2			LTH3			RTB1			RTB2			RTB3			LTB1			LTB2			LTB3			RCAL			RTOE			RMT5			LCAL			LTOE			LMT5			LACR			RACR			CLAV			C7			RUA1			RUA2			RUA3			RLEL			RMEL			LUA1			LUA2			LUA3			LLEL			LMEL			RFAsuperior			RFAradius			RFAulna			LFAsuperior			LFAradius			LFAulna			
		X1	Y1	Z1	X2	Y2	Z2	X3	Y3	Z3	X4	Y4	Z4	X5	Y5	Z5	X6	Y6	Z6	X7	Y7	Z7	X8	Y8	Z8	X9	Y9	Z9	X10	Y10	Z10	X11	Y11	Z11	X12	Y12	Z12	X13	Y13	Z13	X14	Y14	Z14	X15	Y15	Z15	X16	Y16	Z16	X17	Y17	Z17	X18	Y18	Z18	X19	Y19	Z19	X20	Y20	Z20	X21	Y21	Z21	X22	Y22	Z22	X23	Y23	Z23	X24	Y24	Z24	X25	Y25	Z25	X26	Y26	Z26	X27	Y27	Z27	X28	Y28	Z28	X29	Y29	Z29	X30	Y30	Z30	X31	Y31	Z31	X32	Y32	Z32	X33	Y33	Z33	X34	Y34	Z34	X35	Y35	Z35	X36	Y36	Z36	X37	Y37	Z37	X38	Y38	Z38	X39	Y39	Z39	X40	Y40	Z40	X41	Y41	Z41	X42	Y42	Z42	

163	2.05	896.761936	942.465612	-435.51262	879.736761	954.609465	-196.725085	731.079919	990.4491839999999	-378.596812	720.022555	995.797396	-278.875385	824.729946	713.3869570000001	-146.312376	884.961833	630.529972	-162.008553	828.606842	536.992336	-185.726724	921.803545	766.114991	-478.155713	1023.910705	704.355275	-456.797743	1024.562186	590.471777	-441.908296	809.623558	324.429292	-265.71983	740.466548	271.431166	-227.072458	697.306378	180.364681	-301.746343	1007.412477	431.512783	-372.392226	920.263735	431.620927	-442.36038	834.008186	346.333044	-384.414092	546.1532079999999	121.989815	-328.606227	763.908167	66.60296700000001	-335.591988	707.611187	48.579782	-234.001545	680.822073	375.651985	-382.43484	748.846144	167.332343	-382.204769	719.848271	204.322407	-482.338277	888.425144	1438.029339	-468.520058	904.710131	1422.137521	-168.454439	983.526168	1355.128981	-306.917044	843.202485	1459.468322	-310.02706	876.4636819999999	1314.208084	-66.886098	806.310781	1254.604505	-69.033931	854.235852	1200.600803	-12.491976	834.771173	1139.17155	24.419426	790.587478	1110.215994	-31.803251	798.286192	1354.17978	-552.664029	737.319335	1310.056433	-511.224205	749.628781	1276.950067	-594.278699	698.288822	1211.134039	-624.650434	671.119294	1187.723565	-558.539652	941.11727	1107.292584	-13.533022	1032.312495	1080.350885	-115.662725	1013.7936	1019.591576	-82.00493899999999	809.066428	1165.376721	-603.143701	892.6829269999999	1075.396148	-525.000309	870.311368	1057.828428	-592.100632	
164	2.06	897.4377919999999	948.247213	-434.511019	879.084321	957.933008	-195.870632	731.20898	996.5722940000001	-379.210078	719.42762	1000.263591	-279.812121	813.117725	716.256438	-147.96015	869.8447200000001	631.007382	-163.075655	809.046498	540.0661250000001	-186.891324	927.0388850000001	776.600066	-478.718887	1030.423279	719.654506	-454.424773	1035.11831	605.090564	-441.086284	784.13949	328.059151	-266.246619	713.72879	275.438261	-227.426162	670.277722	183.991769	-301.702627	1025.999763	441.959217	-370.256602	940.768568	434.40026	-439.340368	859.291243	343.052981	-382.755112	519.005673	128.428678	-328.145311	734.33469	66.52254000000001	-336.035368	677.275474	48.412735	-234.130998	703.679679	357.464292	-381.049429	793.913153	157.833063	-378.092822	760.866292	189.772064	-478.698067	886.1143039999999	1442.797209	-468.834359	906.706303	1428.898809	-169.847505	983.67605	1360.902832	-308.743399	842.99504	1464.430305	-310.690962	881.89075	1321.242226	-67.861538	812.974977	1261.430273	-65.083303	863.327551	1206.942391	-13.093911	845.500123	1144.997141	24.123843	801.139647	1115.134083	-31.666019	792.857133	1362.108794	-551.483175	733.324787	1318.151996	-508.577713	741.83897	1286.600075	-592.83996	688.622892	1221.865591	-622.618635	662.277771	1198.687439	-555.9911990000001	952.3187830000001	1118.152384	-16.181742	1042.001228	1096.651316	-120.696552	1026.912053	1034.684647	-88.031493	798.851094	1174.162047	-604.452086	883.718563	1084.220086	-527.412604	857.6395230000001	1065.331421	-592.961063	
165	2.07	898.532384	954.458692	-433.086955	878.688078	961.780091	-194.574066	731.83332	1003.634114	-379.691353	719.4730970000001	1005.364431	-280.428217	802.347739	720.51171	-149.501915	855.898161	633.16948	-164.400073	790.297199	544.943227	-187.901727	931.90864	787.715292	-479.094581	1035.746424	734.70363	-452.21946	1043.770142	619.405022	-440.236925	759.42031	332.834477	-266.408986	687.679431	281.342424	-227.443601	644.144188	188.987166	-301.188888	1042.754263	451.922582	-368.579062	960.184706	435.86675	-436.272032	884.629963	339.190493	-380.086606	493.359144	136.639004	-327.63783	705.12899	66.248746	-336.479178	646.956891	48.394337	-234.110764	727.865503	337.606112	-378.602196	840.323968	149.729783	-373.518801	803.41752	176.129202	-474.584156	884.140028	1448.096389	-469.241689	908.847727	1436.263437	-171.440693	984.0497	1367.218699	-310.826795	843.403764	1470.078494	-311.711462	886.2936079999999	1329.244478	-68.77823600000001	819.321779	1269.041343	-62.411783	871.7411070000001	1214.260661	-13.951434	855.270397	1151.77803	23.59413	810.697401	1121.263198	-31.892757	787.9567489999999	1370.626678	-550.283625	729.611985	1326.85062	-505.704178	734.611375	1296.792935	-591.105143	679.585107	1233.127473	-620.30148	654.2917639999999	1210.04175	-553.110037	962.350811	1129.727755	-18.748324	1050.334137	1113.499327	-125.425964	1038.60652	1050.53562	-93.55662599999999	789.24655	1183.963082	-605.269051	875.610662	1094.097141	-530.351738	846.190975	1073.609105	-593.817677	
166	2.08	899.9387840000001	961.13976	-431.693564	878.449033	966.161681	-193.310412	732.928668	1011.429708	-380.14343	720.002786	1011.091477	-280.583937	792.888722	725.938631	-150.74223	843.111407	636.730327	-165.713496	772.6203379999999	551.2434029999999	-188.54692	936.068854	799.189434	-479.265217	1039.763805	749.023405	-450.362425	1050.253988	632.80036	-439.098398	735.759758	338.929297	-266.060073	662.752189	288.9886	-226.958674	619.244647	195.453913	-300.144861	1057.73971	461.120533	-367.137372	978.418348	435.958724	-433.291029	910.335837	334.535416	-376.794785	469.457151	146.565066	-326.910229	676.213623	65.750696	-336.624021	616.729554	48.386552	-233.962385	753.755118	316.385634	-375.045762	887.413874	143.114222	-368.877773	846.9180720000001	163.642735	-470.034839	882.4428370000001	1453.940714	-469.798668	911.050962	1444.057413	-173.132115	984.639844	1373.957873	-313.093678	844.117679	1476.243481	-312.699242	890.143477	1337.756378	-69.610867	825.195257	1277.148846	-61.087647	879.356744	1222.370247	-14.852643	864.124685	1159.33107	23.020789	819.2064820000001	1128.275332	-32.183133	783.672666	1379.538011	-549.006465	726.317035	1336.020079	-502.619178	728.214304	1307.254387	-589.0491029999999	671.364011	1244.64351	-617.552579	647.348427	1221.521484	-549.825698	971.178856	1141.799092	-21.28426	1057.289427	1130.451612	-129.81543	1048.722068	1066.719669	-98.68767699999999	780.439258	1194.328812	-605.570007	868.417313	1104.070914	-533.054752	835.860908	1082.174982	-594.399567	
